# xmcd
#
# Track frame offsets: 
#        150
#        13186
#        29935
#        47407
#        65752
#        82327
#        98091
#        109862
#        123365
#        138183
#
# Disc length: 2078 seconds
#
# Revision: 1
# Processed by: cddbd v1.5.2PL0 Copyright (c) Steve Scherf et al.
# Submitted via: ExactAudioCopyFreeDBPlugin 1.0
#
DISCID=8d081c0a
DTITLE=Emmylou Harris - Blue Kentucky Girl - Original Album Series -
DYEAR=1979
DGENRE=Country Rock
TTITLE0=Sister's Coming Home (with Tanya Tucker)
TTITLE1=Beneath Still Waters
TTITLE2=Rough And Rocky
TTITLE3=Hickory Wind
TTITLE4=Save The Last Dance For Me
TTITLE5=Sorrow in the Wind (with Sharon White and Cheryl White)
TTITLE6=They'll Never Take His Love From Me
TTITLE7=Everytime You Leave (with Don Everly)
TTITLE8=Blue Kentucky Girl
TTITLE9=Even Cowgirls Get The Blues
EXTD=(c)1979 WEA\nupc 075995662710\n(p)Brian Ahern for Happy Sack Prod
EXTD=uctions\nCorrect artist names supplied\n
EXTT0=Songwriter: Willie Nelson\n
EXTT1=Songwriter: Dallas Frazier\n
EXTT2=Songwriter: Charles Justice and Sheji Tabuchi\n
EXTT3=Songwriter: Gram Parsons and Bob Buchanon\n
EXTT4=Songwriter: Doc Pomus and Mort Shuman\n
EXTT5=Songwriter: Jean Ritchie\n
EXTT6=Songwriter: Leon Payne\n
EXTT7=Songwriter: Charles and Ira Louvin\nDon Everly =Featured Singer
EXTT7=\nRicky Scaggs =Backing Vocals, not Featured Singer\n
EXTT8=Songwriter: John Mullins\n
EXTT9=Songwriter: Rodney Crowell\n
PLAYORDER=
